<svg xmlns="http://www.w3.org/2000/svg" width="1200" height="630" viewBox="0 0 1200 630" role="img" aria-labelledby="title desc">
  <title id="title">TGPU Learning Hub — tgpu.my</title>
  <desc id="desc">Official green and gold TGPU social-sharing banner.</desc>
  <defs>
    <linearGradient id="g" x1="0" y1="0" x2="1" y2="1">
      <stop offset="0" stop-color="#0c6549"/>
      <stop offset="1" stop-color="#043c2c"/>
    </linearGradient>
    <linearGradient id="gold" x1="0" y1="0" x2="1" y2="1">
      <stop offset="0" stop-color="#f5d56d"/>
      <stop offset="0.55" stop-color="#d6a431"/>
      <stop offset="1" stop-color="#b98216"/>
    </linearGradient>
  </defs>
  <rect width="1200" height="630" fill="#fffdf8"/>
  <circle cx="1110" cy="20" r="320" fill="#0c6549" opacity=".06"/>
  <circle cx="70" cy="650" r="290" fill="#d6a431" opacity=".10"/>
  <path d="M0 80C180 12 310 18 470 72S810 155 1200 55V0H0Z" fill="url(#g)"/>
  <path d="M0 98C205 28 332 42 480 91S824 177 1200 75" fill="none" stroke="url(#gold)" stroke-width="8"/>
  <g transform="translate(105 164)">
    <path d="M60 88C101 66 132 29 150 0c18 29 49 66 90 88" fill="none" stroke="#0c6549" stroke-width="15" stroke-linecap="round"/>
    <path d="M112 90c15-13 27-31 38-54 11 23 23 41 38 54" fill="none" stroke="#d6a431" stroke-width="11" stroke-linecap="round"/>
    <path d="M25 118c52-15 96-10 125 16v74c-39-27-81-34-125-21Z" fill="#064a38"/>
    <path d="M275 118c-52-15-96-10-125 16v74c39-27 81-34 125-21Z" fill="#0c6549"/>
    <path d="M150 137v78" stroke="#fffdf8" stroke-width="7"/>
  </g>
  <g font-family="Arial, Helvetica, sans-serif">
    <text x="465" y="255" font-size="92" font-weight="900" fill="#064a38">TGPU</text>
    <text x="470" y="315" font-size="35" font-weight="800" letter-spacing="9" fill="#0c6549">LEARNING HUB</text>
    <text x="470" y="365" font-size="33" font-weight="800" fill="#b98216">tgpu.my</text>
    <text x="105" y="500" font-size="29" font-weight="700" fill="#25362f">Knowledge</text>
    <circle cx="300" cy="491" r="7" fill="#d6a431"/>
    <text x="330" y="500" font-size="29" font-weight="700" fill="#25362f">Education</text>
    <circle cx="510" cy="491" r="7" fill="#d6a431"/>
    <text x="540" y="500" font-size="29" font-weight="700" fill="#25362f">Community</text>
    <text x="105" y="555" font-size="23" font-weight="700" fill="#66746e">One green + gold identity for learning, legacy and community resources.</text>
  </g>
  <rect x="105" y="589" width="990" height="5" rx="3" fill="url(#gold)"/>
</svg>
